ply
format ascii 1.0
comment Created by CloudCompare v2.10.3 (Zephyrus)
comment Created 07.02.22 20:36
obj_info Generated by CloudCompare!
element vertex 350
property float x
property float y
property float z
end_header
250.298 -59.5846 917.181 
251.582 -58.4634 916.478 
249.78 -58.1794 916.284 
250.765 -57.0542 915.566 
250.765 -57.0542 915.566 
248.337 -56.8252 915.299 
248.337 -56.8252 915.299 
248.593 -54.8107 913.802 
247.045 -55.5769 914.242 
246.819 -54.569 913.388 
246.819 -54.569 913.388 
245.5 -53.8019 912.528 
245.5 -53.8019 912.528 
244.665 -52.4639 911.176 
244.665 -52.4639 911.176 
243.575 -51.4373 910.029 
243.575 -51.4373 910.029 
244.168 -50.1484 909.043 
242.951 -49.0749 907.907 
241.374 -49.3861 907.857 
241.473 -47.7733 906.664 
240.919 -46.4112 905.668 
240.389 -44.9963 904.757 
238.565 -44.2102 904.163 
238.565 -44.2102 904.163 
237.737 -42.8954 903.449 
237.194 -40.9771 902.544 
237.194 -40.9771 902.544 
235.592 -39.9433 902.018 
235.267 -39.0936 901.639 
234.872 -38.2896 901.276 
234.872 -38.2896 901.276 
233.271 -37.6447 900.899 
232.863 -35.8967 900.091 
232.863 -35.8967 900.091 
232.64 -34.4353 899.391 
232.64 -34.4353 899.391 
231.896 -33.1865 898.695 
231.896 -33.1865 898.695 
231.58 -31.8496 897.94 
231.58 -31.8496 897.94 
230.749 -30.8011 897.224 
229.235 -30.8418 897.059 
229.235 -30.8418 897.059 
228.07 -29.8169 896.272 
228.07 -29.8169 896.272 
228.634 -28.0623 895.142 
226.599 -28.6768 895.351 
226.535 -26.7891 893.976 
226.535 -26.7891 893.976 
226.535 -26.7891 893.976 
224.307 -25.5006 892.844 
224.307 -25.5006 892.844 
225.319 -23.8471 891.601 
223.236 -23.5356 891.271 
223.127 -22.3383 890.323 
223.127 -22.3383 890.323 
222.746 -21.0924 889.334 
221.296 -20.3573 888.735 
221.296 -20.3573 888.735 
220.165 -19.5538 888.091 
220.579 -17.7815 886.721 
220.579 -17.7815 886.721 
219.068 -16.4819 885.679 
219.068 -16.4819 885.679 
219.617 -14.9242 884.541 
217.788 -15.0533 884.537 
217.788 -15.0533 884.537 
218.643 -13.4386 883.396 
217.469 -12.5337 882.654 
217.469 -12.5337 882.654 
216.906 -10.9513 881.483 
216.906 -10.9513 881.483 
214.943 -9.85878 880.567 
215.183 -8.25857 879.521 
215.183 -8.25857 879.521 
213.95 -6.90021 878.578 
213.95 -6.90021 878.578 
215.026 -5.44506 877.818 
214.157 -3.93569 876.93 
212.218 -3.56872 876.607 
212.218 -3.56872 876.607 
212.234 -1.90226 875.802 
210.841 -0.735629 875.217 
210.841 -0.735629 875.217 
209.754 0.94695 874.506 
209.754 0.94695 874.506 
208.483 2.02883 874.073 
208.483 2.02883 874.073 
207.82 4.07819 873.386 
207.82 4.07819 873.386 
205.34 4.30421 873.221 
205.34 4.30421 873.221 
206.212 6.13363 872.715 
204.14 6.01994 872.657 
204.14 6.01994 872.657 
202.93 7.66924 872.137 
202.93 7.66924 872.137 
201.793 9.29858 871.634 
201.793 9.29858 871.634 
201.793 9.29858 871.634 
200.748 10.9384 871.13 
200.748 10.9384 871.13 
198.792 10.8912 871.085 
198.792 10.8912 871.085 
197.915 12.583 870.55 
197.915 12.583 870.55 
197.061 14.2299 870.024 
197.061 14.2299 870.024 
195.264 14.304 869.995 
195.264 14.304 869.995 
194.423 15.8925 869.472 
194.423 15.8925 869.472 
194.423 15.8925 869.472 
193.557 17.4561 868.943 
191.778 17.5202 868.979 
192.665 19.0024 868.398 
190.867 19.0479 868.429 
190.867 19.0479 868.429 
189.924 20.5654 867.844 
189.924 20.5654 867.844 
188.945 22.0821 867.205 
187.056 22.0521 867.256 
187.056 22.0521 867.256 
185.954 23.5329 866.521 
185.954 23.5329 866.521 
184.716 25.0019 865.702 
183.192 26.2297 864.917 
183.192 26.2297 864.917 
181.459 27.1968 864.197 
179.659 28.0218 863.501 
179.659 28.0218 863.501 
177.835 28.7428 862.826 
177.835 28.7428 862.826 
176.045 29.3848 862.173 
176.037 30.5146 861.351 
174.331 30.5233 861.124 
174.331 30.5233 861.124 
172.704 30.7766 860.706 
171.376 31.2792 860.124 
171.376 31.2792 860.124 
170.325 32.5965 858.974 
168.472 32.553 858.68 
168.472 32.553 858.68 
166.598 32.6993 858.23 
166.598 32.6993 858.23 
164.862 33.006 857.687 
164.862 33.006 857.687 
163.163 33.1781 857.256 
163.163 33.1781 857.256 
162.597 34.4847 856.294 
161.307 33.2163 856.909 
160.786 34.7011 855.87 
160.786 34.7011 855.87 
158.755 34.9946 855.406 
158.755 34.9946 855.406 
157.468 35.8941 854.733 
157.468 35.8941 854.733 
156.066 35.7544 854.669 
156.066 35.7544 854.669 
154.629 36.2639 854.266 
154.629 36.2639 854.266 
152.639 36.7295 853.875 
151.349 37.7284 853.251 
151.349 37.7284 853.251 
150.946 39.4052 852.311 
148.76 39.3097 852.201 
148.76 39.3097 852.201 
147.765 40.7554 851.297 
147.765 40.7554 851.297 
145.865 40.9397 851.013 
145.865 40.9397 851.013 
143.816 41.0282 850.759 
142.273 42.3738 849.737 
142.273 42.3738 849.737 
142.273 42.3738 849.737 
140.395 43.3734 848.867 
140.395 43.3734 848.867 
139.474 44.7329 847.874 
139.474 44.7329 847.874 
138.855 46.0446 846.962 
137.816 46.8477 846.329 
137.816 46.8477 846.329 
136.058 47.2377 845.887 
135.95 48.8694 844.871 
135.95 48.8694 844.871 
134.51 49.7032 844.226 
134.51 49.7032 844.226 
132.74 49.2484 844.362 
133.336 51.1181 843.292 
131.23 50.4123 843.566 
131.463 52.1114 842.57 
129.603 51.4829 842.841 
129.797 53.159 841.847 
129.797 53.159 841.847 
128.048 54.2504 841.094 
128.048 54.2504 841.094 
126.041 55.4812 840.23 
126.041 55.4812 840.23 
126.041 55.4812 840.23 
124.95 57.2069 839.081 
123.113 57.5337 838.769 
123.113 57.5337 838.769 
122.801 59.0692 837.755 
122.801 59.0692 837.755 
120.982 60.0522 837.013 
120.982 60.0522 837.013 
119.917 61.5366 835.986 
119.917 61.5366 835.986 
118.163 62.0629 835.576 
117.739 63.737 834.466 
117.739 63.737 834.466 
117.739 63.737 834.466 
117.748 65.361 833.393 
116.474 66.6525 832.527 
116.474 66.6525 832.527 
114.499 66.6611 832.527 
114.499 66.6611 832.527 
113.604 68.2324 831.505 
113.604 68.2324 831.505 
112.541 69.7608 830.515 
112.541 69.7608 830.515 
110.993 71.4343 829.43 
110.993 71.4343 829.43 
110.993 71.4343 829.43 
109.342 72.7034 828.605 
109.342 72.7034 828.605 
107.839 73.4907 828.092 
107.605 74.9594 827.096 
107.605 74.9594 827.096 
105.751 75.1461 826.984 
104.688 76.4724 826.098 
104.688 76.4724 826.098 
103.555 77.6924 825.301 
103.555 77.6924 825.301 
102.653 78.9383 824.507 
102.653 78.9383 824.507 
100.899 79.0135 824.482 
99.9422 80.3521 823.659 
99.9422 80.3521 823.659 
99.9422 80.3521 823.659 
98.7825 81.6501 822.881 
96.7944 81.3841 823.109 
97.4946 82.9419 822.115 
95.4471 82.6917 822.341 
95.4471 82.6917 822.341 
94.2199 84.1019 821.489 
94.2199 84.1019 821.489 
93.0498 85.4708 820.636 
93.0498 85.4708 820.636 
91.9116 86.7877 819.782 
90.008 86.717 819.881 
88.8111 87.9444 819.04 
88.8111 87.9444 819.04 
87.3513 89.1926 818.159 
87.3513 89.1926 818.159 
85.8849 89.5565 817.918 
86.3978 90.5854 817.145 
84.3484 89.8859 817.711 
85.0597 92.0071 816.114 
83.0506 92.7701 815.598 
83.0506 92.7701 815.598 
81.5567 93.2987 815.265 
81.5567 93.2987 815.265 
80.7954 94.3845 814.506 
80.7954 94.3845 814.506 
79.9707 95.7358 813.565 
79.9707 95.7358 813.565 
79.1813 97.173 812.558 
77.1644 97.4194 812.498 
77.1644 97.4194 812.498 
76.3969 98.8909 811.441 
76.3969 98.8909 811.441 
75.6764 100.333 810.376 
73.6088 100.665 810.238 
73.6088 100.665 810.238 
73.0368 102.137 809.086 
72.887 103.395 808.066 
72.887 103.395 808.066 
70.8309 104.766 807.013 
70.8309 104.766 807.013 
70.2037 105.886 806.096 
70.2037 105.886 806.096 
69.5702 107.093 805.105 
67.9018 107.251 805.026 
67.286 108.507 803.992 
67.286 108.507 803.992 
66.6756 109.786 802.95 
66.6756 109.786 802.95 
66.0557 111.099 801.889 
66.0557 111.099 801.889 
65.4058 112.448 800.803 
63.4947 112.598 800.723 
64.6779 113.8 799.715 
62.6841 113.943 799.636 
62.6841 113.943 799.636 
61.8576 115.33 798.511 
61.8576 115.33 798.511 
61.2649 116.782 797.314 
61.2649 116.782 797.314 
59.3674 117.384 796.895 
59.1832 118.866 795.635 
59.1832 118.866 795.635 
57.4902 119.474 795.224 
57.4902 119.474 795.224 
57.0541 120.756 794.149 
57.0541 120.756 794.149 
56.0675 122.016 793.144 
53.993 121.832 793.508 
54.6468 123.251 792.202 
54.6468 123.251 792.202 
52.904 124.305 791.445 
52.904 124.305 791.445 
51.2257 125.312 790.725 
51.2257 125.312 790.725 
49.9074 126.372 789.913 
49.9074 126.372 789.913 
48.5803 127.282 789.23 
47.0363 128.115 788.634 
47.0363 128.115 788.634 
46.6985 129.698 787.193 
46.6985 129.698 787.193 
44.9112 131.096 786.015 
44.9112 131.096 786.015 
42.9418 131.811 785.505 
42.9418 131.811 785.505 
42.6938 132.905 784.423 
41.2683 132.467 785.067 
41.3148 133.874 783.593 
41.3148 133.874 783.593 
39.7925 135.14 782.524 
39.7925 135.14 782.524 
38.7296 136.281 781.572 
38.7296 136.281 781.572 
36.9802 136.379 781.827 
36.9802 136.379 781.827 
35.9337 137.448 781.015 
35.9337 137.448 781.015 
34.6108 138.428 780.395 
34.6108 138.428 780.395 
34.7038 140.133 778.737 
31.9837 140.458 779.104 
31.9837 140.458 779.104 
30.795 141.805 778.048 
30.795 141.805 778.048 
29.7927 143.125 776.915 
28.9295 144.362 775.773 
28.9295 144.362 775.773 
28.1513 145.539 774.617 
28.1513 145.539 774.617 
